<svg xmlns="http://www.w3.org/2000/svg" width="96" height="96" viewBox="0 0 96 96">
  <defs>
    <style>
      .cls-1 {
        fill: #ccc;
        opacity: 0;
      }

      .cls-2, .cls-6, .cls-7 {
        fill: #fff;
      }

      .cls-3 {
        fill: rgba(0,0,0,0.2);
      }

      .cls-4 {
        fill: #ddad30;
      }

      .cls-5 {
        fill: #f4c446;
      }

      .cls-6 {
        font-size: 12px;
        font-family: MicrosoftYaHei, Microsoft YaHei;
      }

      .cls-8, .cls-9 {
        stroke: none;
      }

      .cls-9 {
        fill: #dfdfdf;
      }
    </style>
  </defs>
  <g id="组_1347" data-name="组 1347" transform="translate(-389.573 -1872.5)">
    <rect id="矩形_1009" data-name="矩形 1009" class="cls-1" width="96" height="96" transform="translate(389.573 1872.5)"/>
    <g id="组_1346" data-name="组 1346">
      <g id="减去_5" data-name="减去 5" class="cls-2" transform="translate(3126 4602.095)">
        <path class="cls-8" d="M -2662.000244140625 -2653.5947265625 L -2715.00048828125 -2653.5947265625 C -2716.378662109375 -2653.5947265625 -2717.5 -2654.716064453125 -2717.5 -2656.094482421875 L -2717.5 -2721.09423828125 C -2717.5 -2722.47314453125 -2716.378662109375 -2723.594970703125 -2715.00048828125 -2723.594970703125 L -2677.612548828125 -2723.594970703125 L -2659.499755859375 -2705.48193359375 L -2659.499755859375 -2656.094482421875 C -2659.499755859375 -2654.716064453125 -2660.62158203125 -2653.5947265625 -2662.000244140625 -2653.5947265625 Z"/>
        <path class="cls-9" d="M -2662.000244140625 -2654.0947265625 C -2660.897216796875 -2654.0947265625 -2659.999755859375 -2654.99169921875 -2659.999755859375 -2656.094482421875 L -2659.999755859375 -2705.274658203125 L -2677.81982421875 -2723.094970703125 L -2715.00048828125 -2723.094970703125 C -2716.10302734375 -2723.094970703125 -2717 -2722.197509765625 -2717 -2721.09423828125 L -2717 -2656.094482421875 C -2717 -2654.99169921875 -2716.10302734375 -2654.0947265625 -2715.00048828125 -2654.0947265625 L -2662.000244140625 -2654.0947265625 M -2662.000244140625 -2653.0947265625 L -2715.00048828125 -2653.0947265625 C -2716.654541015625 -2653.0947265625 -2718 -2654.4404296875 -2718 -2656.094482421875 L -2718 -2721.09423828125 C -2718 -2722.748779296875 -2716.654541015625 -2724.094970703125 -2715.00048828125 -2724.094970703125 L -2677.405517578125 -2724.094970703125 L -2658.999755859375 -2705.68896484375 L -2658.999755859375 -2656.094482421875 C -2658.999755859375 -2654.4404296875 -2660.345703125 -2653.0947265625 -2662.000244140625 -2653.0947265625 Z"/>
      </g>
      <g id="交叉_1" data-name="交叉 1" class="cls-3" transform="translate(-2210.405 -827.689) rotate(180)">
        <path class="cls-8" d="M -2659.499755859375 -2706.89599609375 L -2676.198486328125 -2723.594970703125 L -2662.000244140625 -2723.594970703125 C -2660.62158203125 -2723.594970703125 -2659.499755859375 -2722.47314453125 -2659.499755859375 -2721.09423828125 L -2659.499755859375 -2706.89599609375 Z"/>
        <path class="cls-9" d="M -2674.9912109375 -2723.094970703125 L -2659.999755859375 -2708.103271484375 L -2659.999755859375 -2721.09423828125 C -2659.999755859375 -2722.197509765625 -2660.897216796875 -2723.094970703125 -2662.000244140625 -2723.094970703125 L -2674.9912109375 -2723.094970703125 M -2677.405517578125 -2724.094970703125 L -2662.000244140625 -2724.094970703125 C -2660.34326171875 -2724.094970703125 -2658.999755859375 -2722.751220703125 -2658.999755859375 -2721.09423828125 L -2658.999755859375 -2705.68896484375 L -2677.405517578125 -2724.094970703125 Z"/>
      </g>
      <g id="组_1234" data-name="组 1234" transform="translate(25 1233)">
        <path id="减去_4" data-name="减去 4" class="cls-4" d="M69.146,5.133H64.179V0h1.072l3.894,5.131Zm-64.315,0H0L3.9,0h.936V5.132Z" transform="translate(378 702.745)"/>
        <rect id="矩形_611" data-name="矩形 611" class="cls-5" width="69" height="22" transform="translate(378 708)"/>
        <text id="ZIP" class="cls-6" transform="translate(415 724)"><tspan x="-9.155" y="0">ZIP</tspan></text>
      </g>
      <rect id="矩形_890" data-name="矩形 890" class="cls-7" width="1" height="6" rx="0.5" transform="translate(431 1919) rotate(180)"/>
      <g id="组_1259" data-name="组 1259" transform="translate(111.425 -23.771)">
        <path id="路径_86" data-name="路径 86" class="cls-5" d="M447.39,73.143h3.922v3.922H447.39Zm3.906,3.922h3.922v3.922H451.3Z" transform="translate(-125.815 1829.818)"/>
        <path id="路径_85" data-name="路径 85" class="cls-5" d="M447.39,190.415h3.922v3.922H447.39Zm3.906,3.922h3.922v3.922H451.3Z" transform="translate(-125.815 1720.375)"/>
        <path id="路径_84" data-name="路径 84" class="cls-5" d="M447.39,307.688h3.922v3.922H447.39Zm3.906,3.922h3.922v3.922H451.3Zm-3.906,3.922h3.922v3.922H447.39Z" transform="translate(-125.815 1610.93)"/>
        <path id="路径_83" data-name="路径 83" class="cls-5" d="M451.3,483.718h3.922v3.922H451.3Zm-3.906,8.4v7.812a1.953,1.953,0,0,0,1.953,1.953h3.988a1.953,1.953,0,0,0,1.953-1.953v-7.812Zm5.941,7.812h-3.988v-3.922h3.988Z" transform="translate(-125.815 1446.651)"/>
      </g>
    </g>
  </g>
</svg>
