<svg xmlns="http://www.w3.org/2000/svg" width="96" height="96" viewBox="0 0 96 96">
  <defs>
    <style>
      .cls-1 {
        fill: #ccc;
        opacity: 0;
      }

      .cls-2, .cls-6, .cls-7 {
        fill: #fff;
      }

      .cls-3 {
        fill: rgba(0,0,0,0.2);
      }

      .cls-4 {
        fill: #30af65;
      }

      .cls-5 {
        fill: #4ec47f;
      }

      .cls-6 {
        font-size: 12px;
        font-family: MicrosoftYaHei, Microsoft YaHei;
      }

      .cls-8, .cls-9 {
        stroke: none;
      }

      .cls-9 {
        fill: #dfdfdf;
      }
    </style>
  </defs>
  <g id="组_1349" data-name="组 1349" transform="translate(-389.573 -2044.5)">
    <rect id="矩形_1010" data-name="矩形 1010" class="cls-1" width="96" height="96" transform="translate(389.573 2044.5)"/>
    <g id="组_1348" data-name="组 1348">
      <g id="减去_7" data-name="减去 7" class="cls-2" transform="translate(3126 4774.095)">
        <path class="cls-8" d="M -2662.000244140625 -2653.5947265625 L -2715.00048828125 -2653.5947265625 C -2716.378662109375 -2653.5947265625 -2717.5 -2654.716064453125 -2717.5 -2656.094482421875 L -2717.5 -2721.09423828125 C -2717.5 -2722.47314453125 -2716.378662109375 -2723.594970703125 -2715.00048828125 -2723.594970703125 L -2677.612548828125 -2723.594970703125 L -2659.499755859375 -2705.48193359375 L -2659.499755859375 -2656.094482421875 C -2659.499755859375 -2654.716064453125 -2660.62158203125 -2653.5947265625 -2662.000244140625 -2653.5947265625 Z"/>
        <path class="cls-9" d="M -2662.000244140625 -2654.0947265625 C -2660.897216796875 -2654.0947265625 -2659.999755859375 -2654.99169921875 -2659.999755859375 -2656.094482421875 L -2659.999755859375 -2705.274658203125 L -2677.81982421875 -2723.094970703125 L -2715.00048828125 -2723.094970703125 C -2716.10302734375 -2723.094970703125 -2717 -2722.197509765625 -2717 -2721.09423828125 L -2717 -2656.094482421875 C -2717 -2654.99169921875 -2716.10302734375 -2654.0947265625 -2715.00048828125 -2654.0947265625 L -2662.000244140625 -2654.0947265625 M -2662.000244140625 -2653.0947265625 L -2715.00048828125 -2653.0947265625 C -2716.654541015625 -2653.0947265625 -2718 -2654.4404296875 -2718 -2656.094482421875 L -2718 -2721.09423828125 C -2718 -2722.748779296875 -2716.654541015625 -2724.094970703125 -2715.00048828125 -2724.094970703125 L -2677.405517578125 -2724.094970703125 L -2658.999755859375 -2705.68896484375 L -2658.999755859375 -2656.094482421875 C -2658.999755859375 -2654.4404296875 -2660.345703125 -2653.0947265625 -2662.000244140625 -2653.0947265625 Z"/>
      </g>
      <g id="交叉_2" data-name="交叉 2" class="cls-3" transform="translate(-2210.405 -655.689) rotate(180)">
        <path class="cls-8" d="M -2659.499755859375 -2706.89599609375 L -2676.198486328125 -2723.594970703125 L -2662.000244140625 -2723.594970703125 C -2660.62158203125 -2723.594970703125 -2659.499755859375 -2722.47314453125 -2659.499755859375 -2721.09423828125 L -2659.499755859375 -2706.89599609375 Z"/>
        <path class="cls-9" d="M -2674.9912109375 -2723.094970703125 L -2659.999755859375 -2708.103271484375 L -2659.999755859375 -2721.09423828125 C -2659.999755859375 -2722.197509765625 -2660.897216796875 -2723.094970703125 -2662.000244140625 -2723.094970703125 L -2674.9912109375 -2723.094970703125 M -2677.405517578125 -2724.094970703125 L -2662.000244140625 -2724.094970703125 C -2660.34326171875 -2724.094970703125 -2658.999755859375 -2722.751220703125 -2658.999755859375 -2721.09423828125 L -2658.999755859375 -2705.68896484375 L -2677.405517578125 -2724.094970703125 Z"/>
      </g>
      <g id="组_1264" data-name="组 1264" transform="translate(25 1405)">
        <path id="减去_4" data-name="减去 4" class="cls-4" d="M69.146,5.133H64.179V0h1.072l3.894,5.131Zm-64.315,0H0L3.9,0h.936V5.132Z" transform="translate(378 702.745)"/>
        <rect id="矩形_611" data-name="矩形 611" class="cls-5" width="69" height="22" transform="translate(378 708)"/>
        <text id="Excel" class="cls-6" transform="translate(415 724)"><tspan x="-14.35" y="0">Excel</tspan></text>
      </g>
      <rect id="矩形_926" data-name="矩形 926" class="cls-7" width="1" height="6" rx="0.5" transform="translate(431 2091) rotate(180)"/>
      <path id="路径_87" data-name="路径 87" class="cls-5" d="M365.766,441.258l2.448-2.45,16.529,16.529-2.448,2.45Zm0,14.1,6.274-6.274,2.45,2.448-6.274,6.274ZM376.012,445.1l6.285-6.284,2.45,2.448-6.285,6.285Z" transform="translate(61.848 1637.208)"/>
    </g>
  </g>
</svg>
