<svg xmlns="http://www.w3.org/2000/svg" width="96" height="96" viewBox="0 0 96 96">
  <defs>
    <style>
      .cls-1 {
        fill: #ccc;
        opacity: 0;
      }

      .cls-2, .cls-6 {
        fill: #fff;
      }

      .cls-3 {
        fill: rgba(0,0,0,0.2);
      }

      .cls-4 {
        fill: #de5942;
      }

      .cls-5 {
        fill: #f07661;
      }

      .cls-6 {
        font-size: 12px;
        font-family: MicrosoftYaHei, Microsoft YaHei;
      }

      .cls-7, .cls-8 {
        stroke: none;
      }

      .cls-8 {
        fill: #dfdfdf;
      }
    </style>
  </defs>
  <g id="组_1335" data-name="组 1335" transform="translate(-389.573 -833.5)">
    <rect id="矩形_1003" data-name="矩形 1003" class="cls-1" width="96" height="96" transform="translate(389.573 833.5)"/>
    <g id="组_1334" data-name="组 1334">
      <g id="减去_5" data-name="减去 5" class="cls-2" transform="translate(3126 3563.095)">
        <path class="cls-7" d="M -2662.000244140625 -2653.5947265625 L -2715.00048828125 -2653.5947265625 C -2716.378662109375 -2653.5947265625 -2717.5 -2654.716064453125 -2717.5 -2656.094482421875 L -2717.5 -2721.09423828125 C -2717.5 -2722.47314453125 -2716.378662109375 -2723.594970703125 -2715.00048828125 -2723.594970703125 L -2677.612548828125 -2723.594970703125 L -2659.499755859375 -2705.48193359375 L -2659.499755859375 -2656.094482421875 C -2659.499755859375 -2654.716064453125 -2660.62158203125 -2653.5947265625 -2662.000244140625 -2653.5947265625 Z"/>
        <path class="cls-8" d="M -2662.000244140625 -2654.0947265625 C -2660.897216796875 -2654.0947265625 -2659.999755859375 -2654.99169921875 -2659.999755859375 -2656.094482421875 L -2659.999755859375 -2705.274658203125 L -2677.81982421875 -2723.094970703125 L -2715.00048828125 -2723.094970703125 C -2716.10302734375 -2723.094970703125 -2717 -2722.197509765625 -2717 -2721.09423828125 L -2717 -2656.094482421875 C -2717 -2654.99169921875 -2716.10302734375 -2654.0947265625 -2715.00048828125 -2654.0947265625 L -2662.000244140625 -2654.0947265625 M -2662.000244140625 -2653.0947265625 L -2715.00048828125 -2653.0947265625 C -2716.654541015625 -2653.0947265625 -2718 -2654.4404296875 -2718 -2656.094482421875 L -2718 -2721.09423828125 C -2718 -2722.748779296875 -2716.654541015625 -2724.094970703125 -2715.00048828125 -2724.094970703125 L -2677.405517578125 -2724.094970703125 L -2658.999755859375 -2705.68896484375 L -2658.999755859375 -2656.094482421875 C -2658.999755859375 -2654.4404296875 -2660.345703125 -2653.0947265625 -2662.000244140625 -2653.0947265625 Z"/>
      </g>
      <g id="交叉_1" data-name="交叉 1" class="cls-3" transform="translate(-2210.405 -1866.689) rotate(180)">
        <path class="cls-7" d="M -2659.499755859375 -2706.89599609375 L -2676.198486328125 -2723.594970703125 L -2662.000244140625 -2723.594970703125 C -2660.62158203125 -2723.594970703125 -2659.499755859375 -2722.47314453125 -2659.499755859375 -2721.09423828125 L -2659.499755859375 -2706.89599609375 Z"/>
        <path class="cls-8" d="M -2674.9912109375 -2723.094970703125 L -2659.999755859375 -2708.103271484375 L -2659.999755859375 -2721.09423828125 C -2659.999755859375 -2722.197509765625 -2660.897216796875 -2723.094970703125 -2662.000244140625 -2723.094970703125 L -2674.9912109375 -2723.094970703125 M -2677.405517578125 -2724.094970703125 L -2662.000244140625 -2724.094970703125 C -2660.34326171875 -2724.094970703125 -2658.999755859375 -2722.751220703125 -2658.999755859375 -2721.09423828125 L -2658.999755859375 -2705.68896484375 L -2677.405517578125 -2724.094970703125 Z"/>
      </g>
      <g id="组_1234" data-name="组 1234" transform="translate(25 194)">
        <path id="减去_4" data-name="减去 4" class="cls-4" d="M69.146,5.133H64.179V0h1.072l3.894,5.131Zm-64.315,0H0L3.9,0h.936V5.132Z" transform="translate(378 702.745)"/>
        <rect id="矩形_611" data-name="矩形 611" class="cls-5" width="69" height="22" transform="translate(378 708)"/>
        <text id="PPT" class="cls-6" transform="translate(415 724)"><tspan x="-10.781" y="0">PPT</tspan></text>
      </g>
      <g id="组_1256" data-name="组 1256" transform="translate(250.816 681.223)">
        <path id="路径_32" data-name="路径 32" class="cls-5" d="M421.787,426.666a8.483,8.483,0,0,0-7.311,4.25v8.369a8.43,8.43,0,1,0,7.311-12.619Zm0,13.5a5.064,5.064,0,1,1,4.939-3.927A5.08,5.08,0,0,1,421.787,440.164Z" transform="translate(-235.354 -244.443)"/>
        <path id="路径_33" data-name="路径 33" class="cls-5" d="M414.476,426.667h3.37v23.609h-3.37Z" transform="translate(-235.354 -244.444)"/>
      </g>
    </g>
  </g>
</svg>
