<svg xmlns="http://www.w3.org/2000/svg" width="96" height="96" viewBox="0 0 96 96">
  <defs>
    <style>
      .cls-1 {
        fill: #ccc;
        opacity: 0;
      }

      .cls-2, .cls-6, .cls-7 {
        fill: #fff;
      }

      .cls-3 {
        fill: rgba(0,0,0,0.2);
      }

      .cls-4 {
        fill: #d12c2c;
      }

      .cls-5 {
        fill: #ed5050;
      }

      .cls-6 {
        font-size: 12px;
        font-family: MicrosoftYaHei, Microsoft YaHei;
      }

      .cls-8, .cls-9 {
        stroke: none;
      }

      .cls-9 {
        fill: #dfdfdf;
      }
    </style>
  </defs>
  <g id="组_1345" data-name="组 1345" transform="translate(-389.573 -1700.5)">
    <rect id="矩形_1008" data-name="矩形 1008" class="cls-1" width="96" height="96" transform="translate(389.573 1700.5)"/>
    <g id="组_1344" data-name="组 1344">
      <g id="减去_5" data-name="减去 5" class="cls-2" transform="translate(3126 4430.095)">
        <path class="cls-8" d="M -2662.000244140625 -2653.5947265625 L -2715.00048828125 -2653.5947265625 C -2716.378662109375 -2653.5947265625 -2717.5 -2654.716064453125 -2717.5 -2656.094482421875 L -2717.5 -2721.09423828125 C -2717.5 -2722.47314453125 -2716.378662109375 -2723.594970703125 -2715.00048828125 -2723.594970703125 L -2677.612548828125 -2723.594970703125 L -2659.499755859375 -2705.48193359375 L -2659.499755859375 -2656.094482421875 C -2659.499755859375 -2654.716064453125 -2660.62158203125 -2653.5947265625 -2662.000244140625 -2653.5947265625 Z"/>
        <path class="cls-9" d="M -2662.000244140625 -2654.0947265625 C -2660.897216796875 -2654.0947265625 -2659.999755859375 -2654.99169921875 -2659.999755859375 -2656.094482421875 L -2659.999755859375 -2705.274658203125 L -2677.81982421875 -2723.094970703125 L -2715.00048828125 -2723.094970703125 C -2716.10302734375 -2723.094970703125 -2717 -2722.197509765625 -2717 -2721.09423828125 L -2717 -2656.094482421875 C -2717 -2654.99169921875 -2716.10302734375 -2654.0947265625 -2715.00048828125 -2654.0947265625 L -2662.000244140625 -2654.0947265625 M -2662.000244140625 -2653.0947265625 L -2715.00048828125 -2653.0947265625 C -2716.654541015625 -2653.0947265625 -2718 -2654.4404296875 -2718 -2656.094482421875 L -2718 -2721.09423828125 C -2718 -2722.748779296875 -2716.654541015625 -2724.094970703125 -2715.00048828125 -2724.094970703125 L -2677.405517578125 -2724.094970703125 L -2658.999755859375 -2705.68896484375 L -2658.999755859375 -2656.094482421875 C -2658.999755859375 -2654.4404296875 -2660.345703125 -2653.0947265625 -2662.000244140625 -2653.0947265625 Z"/>
      </g>
      <g id="交叉_1" data-name="交叉 1" class="cls-3" transform="translate(-2210.405 -999.689) rotate(180)">
        <path class="cls-8" d="M -2659.499755859375 -2706.89599609375 L -2676.198486328125 -2723.594970703125 L -2662.000244140625 -2723.594970703125 C -2660.62158203125 -2723.594970703125 -2659.499755859375 -2722.47314453125 -2659.499755859375 -2721.09423828125 L -2659.499755859375 -2706.89599609375 Z"/>
        <path class="cls-9" d="M -2674.9912109375 -2723.094970703125 L -2659.999755859375 -2708.103271484375 L -2659.999755859375 -2721.09423828125 C -2659.999755859375 -2722.197509765625 -2660.897216796875 -2723.094970703125 -2662.000244140625 -2723.094970703125 L -2674.9912109375 -2723.094970703125 M -2677.405517578125 -2724.094970703125 L -2662.000244140625 -2724.094970703125 C -2660.34326171875 -2724.094970703125 -2658.999755859375 -2722.751220703125 -2658.999755859375 -2721.09423828125 L -2658.999755859375 -2705.68896484375 L -2677.405517578125 -2724.094970703125 Z"/>
      </g>
      <g id="组_1234" data-name="组 1234" transform="translate(25 1061)">
        <path id="减去_4" data-name="减去 4" class="cls-4" d="M69.146,5.133H64.179V0h1.072l3.894,5.131Zm-64.315,0H0L3.9,0h.936V5.132Z" transform="translate(378 702.745)"/>
        <rect id="矩形_611" data-name="矩形 611" class="cls-5" width="69" height="22" transform="translate(378 708)"/>
        <text id="试卷" class="cls-6" transform="translate(415 724)"><tspan x="-12" y="0">试卷</tspan></text>
      </g>
      <rect id="矩形_890" data-name="矩形 890" class="cls-7" width="1" height="6" rx="0.5" transform="translate(431 1747) rotate(180)"/>
      <path id="路径_63" data-name="路径 63" class="cls-5" d="M362.183,403.353a22.026,22.026,0,0,0-4.239.487,20.574,20.574,0,0,1-4.2-5.421c1.164-3.77,1.216-6.342.348-7.558a2.241,2.241,0,0,0-1.737-.886,2.189,2.189,0,0,0-2.1,1.095c-1.216,2.015.539,6.012,1.355,7.627a48.008,48.008,0,0,1-3.579,8.374c-6.5,2.78-6.689,4.465-6.689,5.073a1.98,1.98,0,0,0,1.147,1.737,1.737,1.737,0,0,0,1.008.261c1.737,0,3.649-1.894,5.751-5.595a46.914,46.914,0,0,1,8.027-2.571,8.688,8.688,0,0,0,5,2.033c1.147,0,3.475,0,3.475-2.311C365.762,404.917,365.293,403.422,362.183,403.353Zm-18.573,8.861H343.4a5.212,5.212,0,0,1,2.432-1.963A4.465,4.465,0,0,1,343.609,412.214Zm8.3-20.137a.417.417,0,0,1,.278,0h.208a5.768,5.768,0,0,1,0,3.475A5.473,5.473,0,0,1,351.914,392.077Zm3.475,13.1a41.893,41.893,0,0,0-4.6,1.355v-.139h-.139c.747-1.477,1.425-3.041,2.033-4.587v-.139a20.85,20.85,0,0,0,2.693,3.3h-.191Zm6.95.886a5.89,5.89,0,0,1-2.05-.452,7.629,7.629,0,0,1,1.737-.139c1.338,0,1.616.33,1.616.539a2.92,2.92,0,0,1-1.32.052Z" transform="translate(83.615 1341.125)"/>
    </g>
  </g>
</svg>
